<?xml version="1.0" encoding="utf-8"?>
<!-- Generator: Adobe Illustrator 26.0.3, SVG Export Plug-In . SVG Version: 6.00 Build 0)  -->
<svg version="1.0" id="katman_1" xmlns="http://www.w3.org/2000/svg" xmlns:xlink="http://www.w3.org/1999/xlink" x="0px" y="0px"
	 viewBox="0 0 600 450" style="enable-background:new 0 0 600 450;" xml:space="preserve">
<style type="text/css">
	.st0{fill:#262626;}
	.st1{fill:#F8BF1E;}
</style>
<path class="st0" d="M191.6,245.2c-9.1,0-14.7-8.2-14.7-19.5c0-11.2,4.7-19.5,14.7-19.5c6.5,0,10.8,4.2,11.6,9.7h15.2
	c-0.8-6.9-3.9-12.9-9.2-16.9c-4.4-3.4-10.4-5.4-17.5-5.4c-18.3,0-30.2,13.9-30.2,32.1c0,18.4,12.3,31.9,30.3,31.9
	c8.6,0,15-2.4,19.6-7c4.2-4,7-9.6,7.4-15.7h-15.2C202.9,240.9,198.4,245.2,191.6,245.2z"/>
<path class="st0" d="M246.8,211.1c-14.1,0-23.5,10.1-23.5,23.3s9.4,23.3,23.5,23.3c14.2,0,23.4-10.1,23.4-23.3
	S260.9,211.1,246.8,211.1z M246.7,247.7c-6.1,0-9.3-5.3-9.3-13.3s3.2-13.4,9.3-13.4s9.4,5.4,9.4,13.4
	C256,242.4,252.8,247.7,246.7,247.7z"/>
<path class="st0" d="M290.1,206.4c3-3,3-7.8,0-10.8c-3-3-7.8-3-10.8,0c-3,3-3,7.8,0,10.8C282.2,209.4,287.1,209.4,290.1,206.4z"/>
<path class="st0" d="M272.5,222.2h5.9v34.2h14v-44.1h-19.8V222.2z"/>
<path class="st0" d="M326.6,211c-6.1,0-10.3,2.6-13.6,7.3h-0.3v-6h-13.4v44h14V232c0-5.4,3.1-9.3,7.7-9.3c4.6,0,6.9,3.2,6.9,7.8
	v25.8h14v-28.6C341.9,217.9,336.2,211,326.6,211z"/>
<path class="st0" d="M374.7,194.8h-26.2v61.4h25.2c7.7,0,13.9-2,18.7-5.6c6.9-5.3,10.7-13.9,10.7-24.8
	C403.1,207.1,391.7,194.8,374.7,194.8z M372.6,243.5h-8.9v-36h9.1c9.5,0,15,7.2,15,18.4C387.7,237.2,382.6,243.5,372.6,243.5z"/>
<path class="st0" d="M444.6,216.8c-3.8-3.4-8.8-5.5-15-5.5c-13.4,0-22.5,10.1-22.5,23.2c0,13.3,8.9,23.4,23.4,23.4
	c5.6,0,10-1.5,13.7-4c3.8-2.7,6.4-6.4,7.4-10.4h-13.6c-1.2,2.7-3.6,4.4-7.3,4.4c-5.7,0-9-3.7-9.9-9.6h31.6
	C452.4,229.2,449.8,221.6,444.6,216.8z M420.8,229.8c0.9-5.3,3.7-8.6,9-8.6c4.5,0,7.8,3.4,8.3,8.6H420.8z"/>
<path class="st0" d="M479.9,228.8c-5.6-1-10.5-1.5-10.5-4.5c0-2.7,2.7-4,6.1-4c3.9,0,6.5,1.2,7,5.1h12.9
	c-0.7-8.7-7.4-14.1-19.8-14.1c-10.4,0-19,4.8-19,14.1c0,10.3,8.1,12.4,15.8,13.6c5.9,1,11.2,1.5,11.2,5.4c0,2.9-2.7,4.4-6.9,4.4
	c-4.6,0-7.5-2.1-8.1-6.5h-13.2c0.4,9.7,8.5,15.7,21.4,15.7c11.5,0,20-5,20-14.6C496.7,232.1,487.7,230.1,479.9,228.8z"/>
<path class="st0" d="M529.6,228.8l15.5-16.5h-16.1l-13.1,14.9v-32.3h-13.8v61.5h13.8v-13.5l4.2-4.5l10.5,18h16.2L529.6,228.8z"/>
<path class="st1" d="M100,229.8c2.3,0,4.2-1.9,4.2-4.2s-1.9-4.2-4.2-4.2c-2.3,0-4.2,1.9-4.2,4.2S97.6,229.8,100,229.8z"/>
<path class="st1" d="M133.8,229.8c2.3,0,4.2-1.9,4.2-4.2s-1.9-4.2-4.2-4.2c-2.3,0-4.2,1.9-4.2,4.2S131.4,229.8,133.8,229.8z"/>
<path class="st1" d="M133.8,263.8c2.3,0,4.2-1.9,4.2-4.2c0-2.3-1.9-4.2-4.2-4.2c-2.3,0-4.2,1.9-4.2,4.2
	C129.5,261.9,131.4,263.8,133.8,263.8z"/>
<path class="st1" d="M146.2,190.9c-0.4-6.2-5.4-11.2-11.6-11.7c-4-0.3-7.5,1.2-10,3.8c-1.9,2-4.5,3.1-7.2,3.1h-1
	c-2.8,0-5.4-1.2-7.4-3.2c-2.3-2.3-5.5-3.7-9-3.7c-3.5,0-6.7,1.5-9,3.7c-2,2-4.6,3.2-7.4,3.2h-0.9c-2.7,0-5.4-1.1-7.3-3
	c-0.4-0.4-0.8-0.8-1.2-1.1c-4.7-3.9-11.7-3.7-16.3,0.3c-5.5,4.9-5.7,13.4-0.6,18.5c0.1,0.1,0.1,0.1,0.2,0.2c2,1.9,3.1,4.6,3.1,7.3v1
	c0,2.8-1.2,5.4-3.2,7.4c-2.3,2.3-3.7,5.5-3.7,9c0,3.5,1.5,6.7,3.7,9c2,2,3.2,4.6,3.2,7.4v1.3c0,2.7-1.2,5.3-3.1,7.2
	c-2.5,2.4-4,5.8-3.8,9.6c0.3,6.6,5.6,11.9,12.2,12.1c3.8,0.1,7.2-1.4,9.6-3.9c1.9-2,4.5-3.2,7.2-3.2h1.1c2.7,0,5.3,1.2,7.2,3.2
	c2.5,2.6,6.1,4.1,10.1,3.9c6.2-0.4,11.2-5.5,11.7-11.7c0.5-7.4-5.3-13.6-12.6-13.6c-3.5,0-6.6,1.4-8.9,3.7c-2,2-4.6,3.1-7.3,3.1
	h-1.2c-2.7,0-5.4-1.1-7.4-3.1c-0.1-0.1-0.1-0.1-0.1-0.1c-2-2-3.2-4.6-3.2-7.4V242c0-2.8,1.2-5.4,3.2-7.4c2.3-2.3,3.7-5.5,3.7-9
	c0-3.5-1.5-6.7-3.7-9c-2-2-3.2-4.6-3.2-7.4v-1c0-2.8,1.2-5.4,3.1-7.4c0.1-0.1,0.1-0.1,0.1-0.1c0.1-0.1,0.1-0.1,0.1-0.1
	c2-2,4.6-3.1,7.4-3.1h1c2.8,0,5.4,1.2,7.4,3.2c2.3,2.3,5.5,3.7,9,3.7c3.5,0,6.7-1.5,9-3.7c2-2,4.6-3.2,7.4-3.2h0.9
	c2.8,0,5.4,1.2,7.4,3.2c2.3,2.3,5.5,3.7,9,3.7C140.9,204.5,146.7,198.3,146.2,190.9z"/>
</svg>
